Coordinates
version=1
nRows=7
nColumns=63
inDegrees=yes

Units are S.I. units (second, meters, Newtons, ...)
If the header above contains a line with 'inDegrees', this indicates whether rotational values are in degrees (yes) or radians (no).

endheader
time	pelvis_tilt	pelvis_list	pelvis_rotation	pelvis_tx	pelvis_ty	pelvis_tz	hip_flexion_r	hip_adduction_r	hip_rotation_r	knee_angle_r	knee_angle_r_beta	ankle_angle_r	subtalar_angle_r	mtp_angle_r	hip_flexion_l	hip_adduction_l	hip_rotation_l	knee_angle_l	knee_angle_l_beta	ankle_angle_l	subtalar_angle_l	mtp_angle_l	L5_S1_Flex_Ext	L5_S1_Lat_Bending	L5_S1_axial_rotation	L4_L5_Flex_Ext	L4_L5_Lat_Bending	L4_L5_axial_rotation	L3_L4_Flex_Ext	L3_L4_Lat_Bending	L3_L4_axial_rotation	L2_L3_Flex_Ext	L2_L3_Lat_Bending	L2_L3_axial_rotation	L1_L2_Flex_Ext	L1_L2_Lat_Bending	L1_L2_axial_rotation	L1_T12_Flex_Ext	L1_T12_Lat_Bending	L1_T12_axial_rotation	Abs_r3	Abs_r2	Abs_r1	Abs_t1	Abs_t2	neck_flexion	neck_bending	neck_rotation	arm_flex_r	arm_add_r	arm_rot_r	elbow_flex_r	pro_sup_r	wrist_flex_r	wrist_dev_r	arm_flex_l	arm_add_l	arm_rot_l	elbow_flex_l	pro_sup_l	wrist_flex_l	wrist_dev_l
      0.03333333	      3.71461895	      0.03731227	    176.51228920	      2.44288774	      0.89912194	      0.56676605	     11.49779367	      1.98113305	     -3.83940111	     20.70719965	      0.36140881	     16.92825703	     -9.39464999	      0.00000000	      6.50176847	     -0.54950976	     -2.94078148	     12.45972481	      0.21746322	     12.72888651	    -16.63261742	      0.00000000	     -0.00169264	     -0.22496076	      0.13606246	     -0.00314340	     -0.29919782	      0.14456636	     -0.00278083	     -0.54696960	      0.14456636	     -0.00193451	     -0.54696960	      0.11905465	     -0.00157178	     -0.45873999	      0.11055075	     -0.00096717	     -0.34846422	      0.10204684	     -0.01209033	     -2.54480116	      0.75673858	      0.00000000	      0.00000000	     -0.00000000	      0.00000000	      0.00000000	    -12.06959526	      1.75974859	    -16.01033960	     24.69029152	     50.56931148	      0.00000000	      5.34285622	    -13.49932573	     -2.17913074	    -18.85159034	     23.91744423	     52.78535081	      0.00000000	      5.34285622
      0.06666667	      3.80574872	      0.01682952	    177.00817864	      2.44239042	      0.89975794	      0.56851737	     11.53992755	      1.46490643	     -5.72038085	     20.70421509	      0.36135672	     19.50502729	     -5.08957456	      0.00000000	      6.14497357	     -0.26014614	     -1.05869186	     11.70434534	      0.20427936	     12.54474238	    -17.05568351	      0.00000000	     -0.00143406	     -0.13685972	      0.10500050	     -0.00266319	     -0.18202343	      0.11156303	     -0.00235602	     -0.33276072	      0.11156303	     -0.00163899	     -0.33276072	      0.09187544	     -0.00133167	     -0.27908434	      0.08531291	     -0.00081942	     -0.21199571	      0.07875038	     -0.01024334	     -1.54818452	      0.58398129	      0.00000000	      0.00000000	     -0.00000000	      0.00000000	      0.00000000	    -11.91548222	      0.12019128	    -12.19113308	     24.05079130	     51.74694689	      0.00000000	      5.25946467	    -12.47012747	     -5.03719232	     -0.82329101	     20.83308349	     58.25921187	      0.00000000	      5.25946467
      0.10000000	      3.93313128	     -0.06176133	    177.35017436	      2.44228329	      0.89993752	      0.56974564	     11.67804665	      1.18055360	     -6.31622372	     20.69574403	      0.36120887	     21.18027413	     -3.10852124	      0.00000000	      5.97963858	     -0.01060748	      0.10473253	     11.17310084	      0.19500740	     12.51806192	    -17.03428442	      0.00000000	     -0.00071973	     -0.06387252	      0.10940120	     -0.00133661	     -0.08495046	      0.11623877	     -0.00118244	     -0.15529965	      0.11623877	     -0.00082258	     -0.15529965	      0.09572605	     -0.00066834	     -0.13024885	      0.08888847	     -0.00041125	     -0.09893854	      0.08205090	     -0.00514095	     -0.72253877	      0.60845664	      0.00000000	      0.00000000	     -0.00000000	      0.00000000	      0.00000000	    -11.76694413	     -1.25746730	     -9.15392979	     23.57062838	     53.69874177	      0.00000000	      5.14627722	    -10.62996641	     -8.11115752	     22.08922528	     19.32781780	     63.89885893	      0.00000000	      5.14627722
      0.13333333	      4.12826337	     -0.17190455	    177.50846383	      2.44254794	      0.89943717	      0.57045487	     11.96050018	      1.08149871	     -5.93335460	     20.75130579	      0.36217861	     22.19142388	     -2.77309954	      0.00000000	      6.09397563	      0.19859117	      0.51334768	     10.95292101	      0.19116453	     12.62029126	    -16.82355610	      0.00000000	     -0.00171999	     -0.01432689	      0.11787225	     -0.00319418	     -0.01905476	      0.12523926	     -0.00282576	     -0.03483440	      0.12523926	     -0.00196577	     -0.03483440	      0.10313822	     -0.00159718	     -0.02921539	      0.09577120	     -0.00098280	     -0.02219235	      0.08840419	     -0.01228568	     -0.16206864	      0.65557009	      0.00000000	      0.00000000	     -0.00000000	      0.00000000	      0.00000000	    -11.68512025	     -1.84541926	     -9.00619407	     23.48825037	     53.78335167	      0.00000000	      5.14496968	    -10.63278594	     -8.03861923	     22.60224973	     19.70774053	     64.01080919	      0.00000000	      5.14496968
      0.16666667	      4.25872980	     -0.47187926	    177.46399168	      2.44298755	      0.89867950	      0.57099314	     12.34178004	      0.06541412	     -9.29228988	     21.36801246	      0.37294217	     23.92827700	      2.82845341	      0.00000000	      6.16982986	      0.59111257	      0.29640259	     10.72046967	      0.18710749	     12.58975391	    -16.69985428	      0.00000000	     -0.00030466	     -0.00729151	      0.16216337	     -0.00056579	     -0.00969771	      0.17229858	     -0.00050053	     -0.01772857	      0.17229858	     -0.00034820	     -0.01772857	      0.14189295	     -0.00028291	     -0.01486884	      0.13175774	     -0.00017408	     -0.01129455	      0.12162252	     -0.00217618	     -0.08248300	      0.90190400	      0.00000000	      0.00000000	     -0.00000000	      0.00000000	      0.00000000	    -11.43749450	     -3.71530280	     -0.87243085	     23.05969877	     56.87600563	      0.00000000	      5.11498374	     -9.00164700	     -9.98649164	     37.91051778	     19.99498528	     67.52357500	      0.00000000	      5.11498374
      0.20000000	      4.30323034	     -0.44833242	    177.58136915	      2.44343057	      0.89806090	      0.57096013	     12.46937173	      0.21271837	     -8.58746259	     21.47446733	      0.37480016	     23.93004988	      2.02697480	      0.00000000	      6.36879350	      0.59368440	      0.35219993	     10.92288982	      0.19064039	     12.79948838	    -16.74046622	      0.00000000	     -0.00030094	     -0.00347737	      0.11120053	     -0.00055887	     -0.00462490	      0.11815057	     -0.00049441	     -0.00845487	      0.11815057	     -0.00034394	     -0.00845487	      0.09730047	     -0.00027945	     -0.00709104	      0.09035043	     -0.00017195	     -0.00538644	      0.08340040	     -0.00214955	     -0.03933665	      0.61846401	      0.00000000	      0.00000000	     -0.00000000	      0.00000000	      0.00000000	    -11.11717863	     -4.34151218	      1.60641770	     22.79811419	     59.68115649	      0.00000000	      5.08304584	     -8.22919431	    -10.68804785	     44.84172057	     19.94452469	     64.80825083	      0.00000000	      5.08304584
      0.23333333	      4.23602297	     -0.42431467	    177.46409888	      2.44368092	      0.89785353	      0.57038622	     12.45918174	      0.32418014	     -8.29045484	     21.60370847	      0.37705584	     23.81051043	      1.88573154	      0.00000000	      6.38274553	      0.54707165	      0.18922127	     11.01715372	      0.19228561	     12.88473429	    -16.91444227	      0.00000000	      0.00033103	     -0.03245569	      0.05240027	      0.00061475	     -0.04316607	      0.05567529	      0.00054384	     -0.07891277	      0.05567529	      0.00037833	     -0.07891277	      0.04585024	      0.00030739	     -0.06618365	      0.04257522	      0.00018915	     -0.05027387	      0.03930021	      0.00236449	     -0.36714529	      0.29143460	      0.00000000	      0.00000000	     -0.00000000	      0.00000000	      0.00000000	    -10.67525462	     -4.39072264	      2.47917798	     22.21592167	     59.08088375	      0.00000000	      5.07129396	     -8.46808547	    -10.77805511	     44.47481063	     19.84712494	     63.27618816	      0.00000000	      5.07129396
